<?xml version="1.0" encoding="utf-8"?>
<!-- Generator: Adobe Illustrator 14.0.0, SVG Export Plug-In . SVG Version: 6.00 Build 43363)  -->
<!DOCTYPE svg PUBLIC "-//W3C//DTD SVG 1.1//EN" "http://www.w3.org/Graphics/SVG/1.1/DTD/svg11.dtd">
<svg version="1.1" id="Ebene_1" xmlns="http://www.w3.org/2000/svg" xmlns:xlink="http://www.w3.org/1999/xlink" x="0px" y="0px"
	 width="24px" height="24px" viewBox="0 0 24 24" enable-background="new 0 0 24 24" xml:space="preserve">
<linearGradient id="SVGID_1_" gradientUnits="userSpaceOnUse" x1="9.3596" y1="23.9453" x2="9.3596" y2="-0.0547" gradientTransform="matrix(1 0 0 -1 0.1401 23.9453)">
	<stop  offset="0" style="stop-color:#95BFF8"/>
	<stop  offset="0.5569" style="stop-color:#84ADEF"/>
	<stop  offset="1" style="stop-color:#7CA4EB"/>
</linearGradient>
<polygon fill="url(#SVGID_1_)" points="11.5,0 0,0 0,24 19,24 19,7.9 "/>
<linearGradient id="SVGID_2_" gradientUnits="userSpaceOnUse" x1="9.3596" y1="22.9453" x2="9.3596" y2="0.9453" gradientTransform="matrix(1 0 0 -1 0.1401 23.9453)">
	<stop  offset="0" style="stop-color:#E7F4FC"/>
	<stop  offset="1" style="stop-color:#DEEFFC"/>
</linearGradient>
<polygon fill="url(#SVGID_2_)" points="1,23 1,1 11.1,1 18,8.3 18,23 "/>
<linearGradient id="SVGID_3_" gradientUnits="userSpaceOnUse" x1="9.3596" y1="21.9453" x2="9.3596" y2="1.9453" gradientTransform="matrix(1 0 0 -1 0.1401 23.9453)">
	<stop  offset="0" style="stop-color:#CEE9F9"/>
	<stop  offset="1" style="stop-color:#BBDFF8"/>
</linearGradient>
<polygon fill="url(#SVGID_3_)" points="2,22 2,2 10.6,2 17,8.7 17,22 "/>
<linearGradient id="SVGID_4_" gradientUnits="userSpaceOnUse" x1="14.1091" y1="23.9453" x2="14.1091" y2="14.5859" gradientTransform="matrix(1 0 0 -1 0.1401 23.9453)">
	<stop  offset="0" style="stop-color:#95BFF8"/>
	<stop  offset="0.5569" style="stop-color:#84ADEF"/>
	<stop  offset="1" style="stop-color:#7CA4EB"/>
</linearGradient>
<path fill="url(#SVGID_4_)" d="M10,9c0,0,5.2-1.5,9,0.4c0-0.1,0-1.5,0-1.5L11.5,0c0,0-1.8,0-2,0C12.1,3.7,10,9,10,9z"/>
<linearGradient id="SVGID_5_" gradientUnits="userSpaceOnUse" x1="11.2239" y1="16.3594" x2="14.352" y2="19.4875" gradientTransform="matrix(1 0 0 -1 0.1401 23.9453)">
	<stop  offset="0" style="stop-color:#E7F4FC"/>
	<stop  offset="0.5181" style="stop-color:#E5F3FC"/>
	<stop  offset="0.7045" style="stop-color:#DEF0FB"/>
	<stop  offset="0.8371" style="stop-color:#D3EBFA"/>
	<stop  offset="0.872" style="stop-color:#CEE9F9"/>
	<stop  offset="1" style="stop-color:#BDD8F0"/>
</linearGradient>
<path fill="url(#SVGID_5_)" d="M17.5,7.8c-0.899-0.2-2-0.3-3.1-0.3c-1.101,0-2.101,0.1-3,0.3c0.399-1.6,0.7-4.1-0.2-6.4L17.5,7.8z"
	/>
<text transform="matrix(1 0 0 1 1.9998 11.1934)"><tspan x="0" y="0" fill="#8FBEF5" font-family="'FranklinGothic-Medium'" font-size="12">E</tspan><tspan x="0" y="10" fill="#8FBEF5" font-family="'FranklinGothic-Medium'" font-size="12">P</tspan></text>
<g>
	<rect x="2.064" y="-1" fill="none" width="22.936" height="22.938"/>
	<path fill="none" stroke="#70A034" stroke-miterlimit="10" d="M22.459,5.719c0.193-0.277-0.229-0.906-0.947-1.409
		s-1.455-0.685-1.648-0.408l1.219-1.739c0.193-0.276,0.93-0.096,1.646,0.407c0.719,0.504,1.143,1.135,0.949,1.411L22.459,5.719z"/>
	<path fill="#B1DD4B" d="M12.748,14.077c-0.209,0.297,0.195,0.938,0.912,1.439c0.719,0.504,1.459,0.664,1.666,0.367L22.504,5.63
		c0.209-0.297-0.195-0.938-0.912-1.439c-0.719-0.503-1.459-0.663-1.666-0.366L12.748,14.077z"/>
	<path fill="none" stroke="#70A034" stroke-miterlimit="10" d="M12.748,14.077c-0.209,0.297,0.195,0.938,0.912,1.439
		c0.719,0.504,1.459,0.664,1.666,0.367L22.504,5.63c0.209-0.297-0.195-0.938-0.912-1.439c-0.719-0.503-1.459-0.663-1.666-0.366
		L12.748,14.077z"/>
	<polygon fill="#B1DD4B" points="10.753,18.835 10.363,20.181 11.549,19.394 12.527,18.501 11.458,17.124 	"/>
	<polygon fill="none" stroke="#70A034" stroke-miterlimit="10" points="10.753,18.835 10.363,20.181 11.549,19.394 12.527,18.501 
		11.458,17.124 	"/>
	<path fill="#D58738" d="M15.265,16.001c0.367-0.525,0.084-1.355-0.633-1.857s-1.596-0.484-1.963,0.039l-1.917,4.652
		c0.113-0.16,0.381-0.164,0.602-0.012c0.219,0.154,0.307,0.408,0.194,0.57L15.265,16.001z"/>
	<path fill="none" stroke="#70A034" stroke-linejoin="bevel" stroke-miterlimit="10" d="M15.265,16.001
		c0.367-0.525,0.084-1.355-0.633-1.857s-1.596-0.484-1.963,0.039l-1.917,4.652c0.113-0.16,0.381-0.164,0.602-0.012
		c0.219,0.154,0.307,0.408,0.194,0.57L15.265,16.001z"/>
</g>
</svg>
