<svg width="24" height="24" id="Ebene_1" data-name="Ebene 1" xmlns="http://www.w3.org/2000/svg" viewBox="0 0 24 24" fill="none" preserveAspectRatio="xMinYMid meet"><defs><style>.cls-1,.cls-2{fill:none;stroke-width:0}.cls-2{fill:#212529}</style></defs><path class="cls-2" d="M18.3 12.1v8H5.2V3.8H13l5.1 4.5.6-1-5.4-4.8H3.8v19.1h15.8V10.3"/><path class="cls-2" d="M17.9 8.7c-.6 0-1.3-.3-2-.3-1.1 0-1.9.2-2.5.3.3-1.2.8-3.2-.3-5.3h.3l4.8 4.3c.2-.2.5-.3.7-.5l-5.4-4.8h-1.3l-.5.8c1.8 2.5.4 6.1.3 6.2l-.2.8.8-.2s2.4-.6 4.8-.3c0-.2.4-.8.5-1zM10.6 9.6v1H7.2V4.9h3.3v1H8.4v1.4h2v1h-2v1.4h2.2zM8.4 16.9V19H7.2v-5.7h2.5c.3 0 .5.2.7.3s.4.3.5.6.2.5.2.8 0 .6-.2.8c0 .2-.2.4-.5.6-.2.2-.4.2-.7.3s-.6 0-.9 0h-.4zm0-.9h1.1c.1 0 .2-.2.3-.2 0-.2.2-.3.2-.5s0-.5-.2-.6-.5-.3-.8-.2h-.5v1.7z"/><path class="cls-2" d="M17 14.9l-.6-.5 4.9-6.9v-.2c0-.2-.2-.4-.5-.6-.4-.2-.6-.3-.7-.3l-4.9 7-.6-.5L19.5 6c.2-.2.3-.3.6-.4.4 0 .9 0 1.4.4.4.2.7.6.8 1 0 .2 0 .6-.2.8l-4.9 6.9zM12.2 18.8l.7-2.2.2-.3c.2-.6 1.1-.8 1.5-.2.3.4-.2 1.2-.5 1.5"/><path class="cls-2" d="M14.1 17.5l-.6-.5-.7-.3 1.4-3.5c.4-.6 1.4-.8 2.1-.2.4.3.7.7.8 1.1 0 .3 0 .6-.2.9m-3 1.6l2.5-2.2c0-.2-.2-.6-.5-.7-.3-.2-.8-.2-1 0l-1.2 2.9zm-.5.6zM18.4 12.9l-.6-.5L22 6.5v-.3c0-.2-.2-.5-.4-.6-.2-.2-.5-.2-.7-.2s-.2 0-.2.2l-4.2 6.1-.6-.5 4.2-6.1c.2-.2.4-.4.7-.5.4 0 .9 0 1.3.3.4.2.6.6.8 1.1 0 .3 0 .7-.2 1l-4.2 6z"/><path class="cls-1" d="M4.1 2.4h19v19.1h-19V2.4z"/></svg>
