<svg version="1.1" id="Ebene_1" xmlns="http://www.w3.org/2000/svg" x="0" y="0" viewBox="0 0 74.4 74.4" style="enable-background:new 0 0 74.4 74.4" xml:space="preserve"><style>.st0{fill:#fff}.st2{fill:none;stroke:#1d1d1b;stroke-width:3;stroke-miterlimit:10}</style><path d="M35.6 2.4H2.5v69.1h54.7V25.1z"/><path class="st0" d="M5.4 68.6V5.3h29.1l19.8 21v42.3z"/><path style="fill:none" d="M8.3 65.7V8.1H33l18.5 19.3v38.3z"/><path d="M31.3 28.3s15-4.3 25.9 1.2v-4.3L35.6 2.4h-5.8c7.5 10.6 1.5 25.9 1.5 25.9z"/><path class="st0" d="M52.9 24.8c-2.6-.5-5.8-.8-8.9-.8-3.2 0-6.1.3-8.6.9 1.1-4.6 2-11.8-.6-18.4l18.1 18.3z"/><path d="M23.8 29.1v3.5H11V11.2h12.6v3.5h-8.3v5.2h7.6v3.5h-7.6v5.7h8.5z"/><path class="st2" d="M67.2 18.9c.6-.8-.7-2.6-2.7-4.1-2.1-1.4-4.2-2-4.7-1.2l3.5-5c.6-.8 2.7-.3 4.7 1.2 2.1 1.5 3.3 3.3 2.7 4.1l-3.5 5z"/><path class="st0" d="M39.2 42.9c-.6.9.6 2.7 2.6 4.1 2.1 1.5 4.2 1.9 4.8 1.1l20.7-29.5c.6-.9-.6-2.7-2.6-4.1-2.1-1.4-4.2-1.9-4.8-1.1L39.2 42.9z"/><path class="st2" d="M39.2 42.9c-.6.9.6 2.7 2.6 4.1 2.1 1.5 4.2 1.9 4.8 1.1l20.7-29.5c.6-.9-.6-2.7-2.6-4.1-2.1-1.4-4.2-1.9-4.8-1.1L39.2 42.9z"/><path style="fill:#b1dd4b" d="m33.5 56.6-1.2 3.9 3.5-2.3 2.8-2.5-3.1-4z"/><path class="st2" d="m33.5 56.6-1.2 3.9 3.5-2.3 2.8-2.5-3.1-4z"/><path class="st0" d="M46.5 48.5c1.1-1.5.2-3.9-1.8-5.3-2.1-1.4-4.6-1.4-5.7.1l-5.5 13.4c.3-.5 1.1-.5 1.7 0 .6.4.9 1.2.6 1.6l10.7-9.8z"/><path d="M46.5 48.5c1.1-1.5.2-3.9-1.8-5.3-2.1-1.4-4.6-1.4-5.7.1l-5.5 13.4c.3-.5 1.1-.5 1.7 0 .6.4.9 1.2.6 1.6l10.7-9.8z" style="fill:none;stroke:#1d1d1b;stroke-width:3;stroke-linejoin:bevel;stroke-miterlimit:10"/><path d="M15.3 56.4v8.1H11V43.2h5.9c1.2 0 2.3.1 3.3.3 1 .2 1.9.6 2.6 1.1.8.6 1.4 1.3 1.9 2.2.5.9.7 1.9.7 2.9 0 1.2-.2 2.2-.6 3.1-.4.9-1 1.6-1.8 2.1-.7.5-1.6.9-2.6 1.2s-2.1.4-3.2.4c-.4 0-1.1-.1-1.9-.1zm0-3.3c.8 0 1.4 0 2.1-.1.6-.1 1.2-.2 1.7-.4s.9-.5 1.2-1c.3-.5.5-1.1.5-1.8 0-1-.3-1.8-.8-2.3-.5-.5-1.1-.8-1.9-.9-.7-.1-1.7-.2-2.8-.2v6.7z"/></svg>