<?xml version="1.0" encoding="UTF-8"?>
<svg version="1.1" id="Ebene_1" xmlns="http://www.w3.org/2000/svg" xmlns:xlink="http://www.w3.org/1999/xlink" x="0px" y="0px"
	 viewBox="0 0 24.2756 24.0394" style="enable-background:new 0 0 24.2756 24.0394;" xml:space="preserve">
  <defs>
    <style>
      .cls-1 {
        fill: none;
      }
    </style>
  </defs>
  <g>
    <path d="M18.1881,12.2029v10.0926H1.7044V1.7044H11.5268l6.3605,5.661,.7986-1.2896L11.9349,0H0V24H19.8914V9.7704"/>
    <path d="M17.736,7.8985c-.8017-.1002-1.6887-.3205-2.4904-.3205-1.4029,0-2.3939,.2203-3.1956,.3205,.4008-1.5031,1.0012-4.0404-.4017-6.6458h.4017l6.0322,5.4614c.2004-.3006,.5785-.4378,.8791-.6382L12.2104,0h-1.6635l-.6013,1.0522c2.3048,3.1065,.501,7.7161,.4008,7.8163l-.3006,1.0021,1.0021-.3006s3.0063-.8017,6.0125-.4008c.1002-.3006,.4751-.97,.6755-1.2706h.0001Z"/>
    <path d="M8.5428,9.0689v1.2025H4.2338V3.1566h4.2088v1.2025h-2.7056v1.7035h2.5052v1.2025h-2.5052v1.8038s2.8058,0,2.8058,0Z"/>
    <path d="M5.737,18.1879v2.7056h-1.5031v-7.1148h2.0042c.4008,0,.8017,0,1.1023,.1002s.6013,.2004,.9019,.4008,.501,.4008,.6013,.7015,.2004,.6013,.2004,1.0021-.1002,.7015-.2004,1.0021c-.1002,.3006-.3006,.501-.6013,.7015-.2004,.2004-.501,.3006-.9019,.4008s-.7015,.1002-1.1023,.1002h-.5011Zm0-1.1023h.7015c.2004,0,.4109,0,.6013-.1002,.1774-.0933,.3006-.2004,.4008-.3006,.1002-.2004,.2004-.4008,.2004-.6013,0-.3006-.1002-.6013-.3006-.8017s-.5853-.3303-.952-.3067c-.1521-.0235-.3507-.0235-.6514-.0235v2.134h0Z"/>
    <g>
      <path d="M16.5595,15.7829l-.8017-.6013,6.1127-8.7182v-.2004c0-.2004-.2004-.501-.6013-.7015-.501-.3006-.8017-.4008-.9019-.4008s-.1002,0-.1002,.1002l-6.2129,8.8184-.8017-.6013,6.2129-8.7182c.2004-.3006,.4008-.4008,.7015-.501,.501-.1002,1.1023,.1002,1.7035,.501,.501,.3006,.9019,.8017,1.0021,1.3027,.1002,.3006,0,.7015-.2004,1.0021l-6.1127,8.7182h0Z"/>
      <path d="M10.547,20.5929h0l.9019-2.8058h0l.2004-.4008c.3006-.8017,1.4029-1.0021,1.904-.3006h0c.4008,.501-.2004,1.5031-.6013,1.904h0"/>
      <path d="M12.952,18.9896h0l-.7015-.6013h0l-.9019-.4008,1.8038-4.4092c.501-.7015,1.7035-1.0021,2.6054-.3006,.501,.4008,.9019,.9019,1.0021,1.4029,.1002,.4008,0,.8017-.2004,1.1023m-3.9081,2.1044h0l3.2067-2.8058c0-.1002,.1002,.1002,0,0,0-.3006-.3006-.7015-.6013-.9019-.4008-.3006-1.0021-.3006-1.2025-.1002l-1.5031,3.7077s.1002,.1002,.1002,.1002Zm-.6013,.8017h0Z"/>
      <path d="M18.3633,13.1775l-.8017-.6013,5.3111-7.4154s.1002-.2004,0-.4008c-.1002-.3006-.3006-.6013-.501-.8017-.3006-.2004-.6013-.3006-.9019-.3006-.1002,0-.2004,.1002-.3006,.2004l-5.3111,7.6159-.8017-.6013,5.3111-7.6159c.2004-.3006,.501-.501,.9019-.6013,.501-.1002,1.1023,0,1.6033,.4008,.501,.3006,.8017,.8017,1.0021,1.4029,.1002,.4008,0,.9019-.2004,1.2025l-5.3111,7.5157h0Z"/>
    </g>
  </g>
  <polygon class="cls-1" points=".2756 .0394 24.2756 0 24.2756 24 .2756 24.0394 .2756 .0394"/>
</svg>
